<svg xmlns="http://www.w3.org/2000/svg" viewBox="0 0 512 512">
  <rect width="512" height="512" rx="112" fill="#14213d"/>
  <rect width="512" height="512" rx="112" fill="url(#g)"/>
  <defs>
    <linearGradient id="g" x1="0" y1="0" x2="1" y2="1">
      <stop offset="0" stop-color="#22345f"/>
      <stop offset="1" stop-color="#0d1428"/>
    </linearGradient>
  </defs>
  <path d="M256 96c-64 96-128 148-128 224a128 128 0 0 0 256 0c0-76-64-128-128-224z" fill="#d6451b"/>
  <path d="M256 96c-30 52-48 84-64 112a128 128 0 0 1 64 208 112 112 0 0 0 0-320z" fill="#e8663a"/>
  <path d="M256 320a48 48 0 0 0 48 48c-8 32-32 48-64 48a56 56 0 0 1 16-96z" fill="#d9a441"/>
  <rect x="150" y="380" width="212" height="40" rx="20" fill="#d9a441"/>
</svg>